# xmcd
#
# Track frame offsets: 
#        150
#        17887
#        36057
#        64037
#
# Disc length: 1251 seconds
#
# Revision: 0
# Processed by: cddbd v1.5.2PL0 Copyright (c) Steve Scherf et al.
# Submitted via: ExactAudioCopy v1.0b1
#
DISCID=2b04e104
DTITLE=Bass Bumpers - Keep On Pushing CDM
DYEAR=1995
DGENRE=Eurodance
TTITLE0=Keep On Pushing (Upspeed Radio Mix)
TTITLE1=Keep On Pushing (Downspeed Radio Mix)
TTITLE2=Keep On Pushing (Club Mix)
TTITLE3=Keep On Pushing (Kick The Bass Mix)
EXTD=
EXTT0=
EXTT1=
EXTT2=
EXTT3=
PLAYORDER=
